<svg xmlns="http://www.w3.org/2000/svg" version="1.1" viewBox="0 106.667 500 205" style="max-height: 500px" width="500" height="205">
<path transform="translate(0,0)" fill="#FFFEFE" d="M0 0 C165 0 330 0 500 0 C500 165 500 330 500 500 C335 500 170 500 0 500 C0 335 0 170 0 0 Z"/>
<path transform="translate(82.243896484375,227.595947265625)" fill="#FF5858" d="M0 0 C1.93231728 -0.01902626 1.93231728 -0.01902626 3.90367126 -0.03843689 C5.31151489 -0.03638538 6.71935742 -0.03339729 8.12719727 -0.02954102 C9.57064561 -0.03410183 11.01409178 -0.03940711 12.45753479 -0.04542542 C15.48301005 -0.05436179 18.50822143 -0.05192791 21.53369141 -0.04199219 C25.40886196 -0.03050553 29.28312088 -0.05070533 33.15817165 -0.07990932 C36.13936642 -0.09826635 39.12034256 -0.0979799 42.10157967 -0.0922718 C43.53011414 -0.0921185 44.95866336 -0.09817014 46.38714409 -0.11056328 C48.38564935 -0.12545778 50.38430446 -0.11217416 52.3828125 -0.09765625 C54.08799294 -0.097407 54.08799294 -0.097407 55.82762146 -0.09715271 C59.45888153 0.52433217 60.63307555 1.41945848 62.75610352 4.40405273 C63.26403809 6.87023926 63.26403809 6.87023926 63.27368164 9.65991211 C63.28629028 10.70779907 63.29889893 11.75568604 63.31188965 12.83532715 C63.30379272 13.96144409 63.2956958 15.08756104 63.28735352 16.24780273 C63.29309387 17.98966858 63.29309387 17.98966858 63.2989502 19.76672363 C63.30167144 22.22120023 63.29429556 24.67570572 63.27758789 27.13012695 C63.25618317 30.89006115 63.2773844 34.64808432 63.30297852 38.40795898 C63.30033528 40.79207779 63.29521039 43.17619541 63.28735352 45.56030273 C63.29545044 46.68641968 63.30354736 47.81253662 63.31188965 48.97277832 C63.29928101 50.02066528 63.28667236 51.06855225 63.27368164 52.14819336 C63.27049927 53.0687854 63.26731689 53.98937744 63.26403809 54.93786621 C62.57679097 58.27467312 61.50962946 59.42226061 58.75610352 61.40405273 C55.82762146 61.90525818 55.82762146 61.90525818 52.3828125 61.90576172 C50.44576698 61.91983315 50.44576698 61.91983315 48.46958923 61.93418884 C47.06378516 61.92371163 45.65798748 61.91234277 44.25219727 61.90014648 C42.80778429 61.90030149 41.3633709 61.9017907 39.91896057 61.90455627 C36.89516768 61.90593956 33.87184953 61.89339337 30.84814453 61.87060547 C26.97188408 61.8421949 23.09641077 61.84496564 19.22009182 61.85769558 C16.23892997 61.86464879 13.2579502 61.85686814 10.2768116 61.84443855 C8.84747071 61.83992231 7.41811029 61.83958878 5.98876762 61.84350395 C3.992479 61.84641295 1.99619398 61.82776068 0 61.80810547 C-1.13599136 61.80270248 -2.27198273 61.7972995 -3.44239807 61.79173279 C-6.24389648 61.40405273 -6.24389648 61.40405273 -8.10987854 60.21266174 C-9.66195828 57.73729932 -9.6248417 55.97776313 -9.63208008 53.06225586 C-9.64153656 51.97102417 -9.65099304 50.87979248 -9.66073608 49.75549316 C-9.65466339 48.57733032 -9.6485907 47.39916748 -9.64233398 46.18530273 C-9.64663925 44.37116882 -9.64663925 44.37116882 -9.65103149 42.52038574 C-9.65307434 39.96158378 -9.64752916 37.40276629 -9.63500977 34.84399414 C-9.61896027 30.91964919 -9.63485211 26.99633427 -9.65405273 23.07202148 C-9.65207034 20.58894629 -9.64822676 18.10587173 -9.64233398 15.62280273 C-9.65144302 13.85555847 -9.65144302 13.85555847 -9.66073608 12.0526123 C-9.6512796 10.96138062 -9.64182312 9.87014893 -9.63208008 8.74584961 C-9.6296933 7.78449097 -9.62730652 6.82313232 -9.62484741 5.8326416 C-9.24389648 3.40405273 -9.24389648 3.40405273 -8.10987854 1.59544373 C-5.38296953 -0.14563134 -3.2204752 0.01531717 0 0 Z"/>
<path transform="translate(65.4140625,135.5078125)" fill="#FF5A5A" d="M0 0 C6.32200566 4.67089765 12.23905198 10.42806867 16.1875 17.265625 C16.64898437 18.00039062 17.11046875 18.73515625 17.5859375 19.4921875 C18.2459375 19.4921875 18.9059375 19.4921875 19.5859375 19.4921875 C20.80928803 17.88803914 21.96370654 16.23113498 23.0859375 14.5546875 C29.61691258 5.41132239 37.4688901 -2.49301998 48.5859375 -5.5078125 C55.61234052 -6.37930435 62.75579332 -6.64702483 68.96484375 -2.828125 C72.57385973 0.11126633 75.08278679 3.01650792 76.02734375 7.6640625 C76.32904031 13.30870777 75.11698281 18.04763793 71.5859375 22.4921875 C54.74263726 38.16986143 31.04023006 39.30498591 9.24609375 38.83984375 C-5.68593252 38.2425627 -22.89588573 35.93992551 -33.5390625 24.4296875 C-37.49603499 19.32702225 -38.90535637 15.22851797 -38.72265625 8.76953125 C-38.11642577 4.29570381 -36.335498 0.95889812 -32.73046875 -1.79296875 C-22.14266464 -8.14565122 -10.18766819 -6.36317139 0 0 Z"/>
<path transform="translate(83.361328125,182.61181640625)" fill="#FF5858" d="M0 0 C0.74664413 -0.00525696 1.49328827 -0.01051392 2.26255798 -0.01593018 C4.73189176 -0.02913966 7.20058148 -0.02038908 9.66992188 -0.01025391 C11.38480758 -0.01227438 13.09969244 -0.01518559 14.8145752 -0.01895142 C18.4091815 -0.02337604 22.00356421 -0.01693934 25.59814453 -0.00292969 C30.20862881 0.01416238 34.81858921 0.00432193 39.42905426 -0.01364708 C42.97035681 -0.02448124 46.51153491 -0.02104029 50.05284119 -0.0132637 C51.75292523 -0.01126067 53.45302053 -0.01372458 55.15309143 -0.02070236 C57.52814723 -0.02831093 59.90235148 -0.0167218 62.27734375 0 C63.33410561 -0.00910904 63.33410561 -0.00910904 64.41221619 -0.0184021 C67.26186317 0.01881778 69.19115232 0.08021796 71.57548523 1.72102356 C73.31054402 4.44173181 73.0096745 6.99150692 73.00195312 10.17333984 C73.00270088 11.15867958 73.00270088 11.15867958 73.00346375 12.16392517 C73.00112675 13.54998811 72.99142013 14.93605558 72.97485352 16.32202148 C72.95121649 18.44667343 72.95429996 20.57007382 72.9609375 22.69482422 C72.91783102 33.10902445 72.91783102 33.10902445 70.63867188 35.38818359 C68.11995195 35.5864581 65.71119521 35.66097816 63.19140625 35.64697266 C62.42379471 35.65047729 61.65618317 35.65398193 60.86531067 35.65759277 C58.32092316 35.66641528 55.77681235 35.66055919 53.23242188 35.65380859 C51.46887153 35.6551551 49.70532154 35.6570955 47.94177246 35.65960693 C44.24288403 35.6625589 40.54409208 35.65825825 36.84521484 35.64892578 C32.09682282 35.63753119 27.34865686 35.64409028 22.60027313 35.65607071 C18.95780729 35.66328737 15.3153953 35.66100228 11.67292786 35.65581512 C9.92177809 35.65447809 8.17062348 35.65612822 6.41947937 35.66077423 C3.97483306 35.66583632 1.53055619 35.65813391 -0.9140625 35.64697266 C-2.00662605 35.65304535 -2.00662605 35.65304535 -3.1212616 35.65924072 C-8.13279926 35.61671246 -8.13279926 35.61671246 -10.36132812 33.38818359 C-10.75996309 29.13076221 -10.69035354 24.85870785 -10.67700195 20.5847168 C-10.67384502 18.46204154 -10.69728573 16.34076423 -10.72265625 14.21826172 C-10.72492958 12.86995619 -10.72563258 11.5216469 -10.72460938 10.17333984 C-10.72759033 8.94494385 -10.73057129 7.71654785 -10.73364258 6.45092773 C-10.36132812 3.38818359 -10.36132812 3.38818359 -9.29814148 1.72102356 C-6.37309245 -0.29188194 -3.42692145 -0.02953926 0 0 Z"/>
<path transform="translate(35.71875,227.50390625)" fill="#FF5858" d="M0 0 C1.09699219 -0.00064453 2.19398437 -0.00128906 3.32421875 -0.00195312 C4.46503906 0.01802734 5.60585938 0.03800781 6.78125 0.05859375 C8.49248047 0.04795898 8.49248047 0.04795898 10.23828125 0.03710938 C19.79058574 0.11007057 19.79058574 0.11007057 23.28125 3.49609375 C23.78918457 5.92468262 23.78918457 5.92468262 23.79882812 8.83789062 C23.81143677 9.92912231 23.82404541 11.020354 23.83703613 12.14465332 C23.82893921 13.32281616 23.82084229 14.500979 23.8125 15.71484375 C23.8163269 16.92426636 23.82015381 18.13368896 23.82409668 19.37976074 C23.82682048 21.9385664 23.81942678 24.49739968 23.80273438 27.05615234 C23.78133355 30.98077259 23.80252253 34.90356194 23.828125 38.828125 C23.82548181 41.31120197 23.82035702 43.7942778 23.8125 46.27734375 C23.82059692 47.45550659 23.82869385 48.63366943 23.83703613 49.84753418 C23.82442749 50.93876587 23.81181885 52.02999756 23.79882812 53.15429688 C23.79405457 54.59633484 23.79405457 54.59633484 23.78918457 56.06750488 C23.28125 58.49609375 23.28125 58.49609375 21.41674805 60.30470276 C17.01619564 62.75976401 11.69393982 61.96412459 6.78125 61.93359375 C5.64042969 61.95357422 4.49960937 61.97355469 3.32421875 61.99414062 C2.22722656 61.99349609 1.13023438 61.99285156 0 61.9921875 C-1.00095703 61.99404053 -2.00191406 61.99589355 -3.03320312 61.99780273 C-6.49675809 61.35074769 -7.51732728 60.20832683 -9.71875 57.49609375 C-10.22668457 55.02990723 -10.22668457 55.02990723 -10.23632812 52.24023438 C-10.24893677 51.19234741 -10.26154541 50.14446045 -10.27453613 49.06481934 C-10.26643921 47.93870239 -10.25834229 46.81258545 -10.25 45.65234375 C-10.2538269 44.49109985 -10.25765381 43.32985596 -10.26159668 42.13342285 C-10.26431792 39.67894626 -10.25694205 37.22444077 -10.24023438 34.77001953 C-10.21882965 31.01008534 -10.24003088 27.25206216 -10.265625 23.4921875 C-10.26298176 21.10806869 -10.25785688 18.72395108 -10.25 16.33984375 C-10.25809692 15.21372681 -10.26619385 14.08760986 -10.27453613 12.92736816 C-10.26192749 11.8794812 -10.24931885 10.83159424 -10.23632812 9.75195312 C-10.23314575 8.83136108 -10.22996338 7.91076904 -10.22668457 6.96228027 C-9.05963949 1.29589915 -5.29775246 -0.00980749 0 0 Z"/>
<path transform="translate(26.5,182.6015625)" fill="#FF5858" d="M0 0 C0.83208984 -0.00287018 1.66417969 -0.00574036 2.52148438 -0.00869751 C4.27995484 -0.01073812 6.03844801 -0.00520843 7.796875 0.00732422 C10.49009913 0.02337848 13.1818226 0.00747605 15.875 -0.01171875 C17.58333665 -0.00973632 19.29167236 -0.00589264 21 0 C22.20946289 -0.00910904 22.20946289 -0.00910904 23.44335938 -0.0184021 C29.05735472 0.05229991 29.05735472 0.05229991 31.21305847 1.73800659 C33.23199914 4.34287357 32.87147329 6.68652447 32.86328125 9.9296875 C32.86263672 11.21488281 32.86199219 12.50007812 32.86132812 13.82421875 C32.85302979 14.49275879 32.84473145 15.16129883 32.83618164 15.85009766 C32.81258192 17.89135202 32.81562347 19.93130005 32.82226562 21.97265625 C32.76696034 31.997997 32.76696034 31.997997 30.5 35.3984375 C27.47263948 35.6898974 24.65313244 35.79420921 21.625 35.76171875 C20.30459717 35.76246651 20.30459717 35.76246651 18.95751953 35.76322937 C17.09470362 35.76088682 15.23188468 35.75114762 13.36914062 35.73461914 C10.51143203 35.71103186 7.65465613 35.71405598 4.796875 35.72070312 C2.98957775 35.71512641 1.18228444 35.70801657 -0.625 35.69921875 C-1.91253174 35.70058586 -1.91253174 35.70058586 -3.22607422 35.70198059 C-9.26898192 35.62945558 -9.26898192 35.62945558 -11.5 33.3984375 C-11.89863496 29.14101612 -11.82902541 24.86896176 -11.81567383 20.5949707 C-11.81251689 18.47229544 -11.83595761 16.35101814 -11.86132812 14.22851562 C-11.86360146 12.88021009 -11.86430446 11.53190081 -11.86328125 10.18359375 C-11.86626221 8.95519775 -11.86924316 7.72680176 -11.87231445 6.46118164 C-11.5 3.3984375 -11.5 3.3984375 -10.21305847 1.73127747 C-7.25239862 -0.57225498 -3.60105536 -0.02712126 0 0 Z"/>
<path transform="translate(269,211)" fill="#FF6060" d="M0 0 C1.36092587 0.9621115 2.70609982 1.94947628 4 3 C3.42655063 5.86724686 3.1385485 6.8614515 1 9 C-3.06314449 8.69902633 -6.58602685 6.0230952 -10 4 C-13.31973998 2.34013001 -16.9788798 2.73125344 -20.625 2.6875 C-21.40746094 2.65849609 -22.18992188 2.62949219 -22.99609375 2.59960938 C-30.14170703 2.52258369 -34.75446869 4.96210825 -40.6875 8.6875 C-47.04317953 15.04317953 -50.01386268 23.44048298 -50.3125 32.3125 C-50.13032287 41.15416315 -47.75134653 49.177561 -41.43359375 55.58984375 C-35.05539454 61.42582468 -29.14026762 63.51383589 -20.625 63.375 C-19.92117187 63.38660156 -19.21734375 63.39820313 -18.4921875 63.41015625 C-12.4607812 63.3771376 -9.14944985 62.04981662 -3 60 C-2.67 52.74 -2.34 45.48 -2 38 C-7.61 38 -13.22 38 -19 38 C-19 35.69 -19 33.38 -19 31 C-10.75 31 -2.5 31 6 31 C6 41.89 6 52.78 6 64 C-6.94393806 70.47196903 -20.60037991 74.04927694 -34.875 69.5 C-45.80002714 64.8014169 -52.06401605 57.35087089 -57.02734375 46.8203125 C-60.89172969 37.09701884 -59.98462595 25.54325005 -56 16 C-50.67755041 6.17726783 -42.84261147 -0.89459701 -32.14453125 -4.3359375 C-20.6971375 -6.75339953 -10.43093175 -5.41371458 0 0 Z"/>
<path transform="translate(303,132)" fill="#FF6060" d="M0 0 C1.36092587 0.9621115 2.70609982 1.94947628 4 3 C3.42655063 5.86724686 3.1385485 6.8614515 1 9 C-3.06314449 8.69902633 -6.58602685 6.0230952 -10 4 C-13.31973998 2.34013001 -16.9788798 2.73125344 -20.625 2.6875 C-21.40746094 2.65849609 -22.18992187 2.62949219 -22.99609375 2.59960938 C-30.14170703 2.52258369 -34.75446869 4.96210825 -40.6875 8.6875 C-47.04317953 15.04317953 -50.01386268 23.44048298 -50.3125 32.3125 C-50.13032287 41.15416315 -47.75134653 49.177561 -41.43359375 55.58984375 C-35.05539454 61.42582468 -29.14026762 63.51383589 -20.625 63.375 C-19.92117188 63.38660156 -19.21734375 63.39820313 -18.4921875 63.41015625 C-12.4607812 63.3771376 -9.14944985 62.04981662 -3 60 C-2.67 52.74 -2.34 45.48 -2 38 C-7.61 38 -13.22 38 -19 38 C-19 35.69 -19 33.38 -19 31 C-10.75 31 -2.5 31 6 31 C6 41.89 6 52.78 6 64 C-6.94393806 70.47196903 -20.60037991 74.04927694 -34.875 69.5 C-45.80002714 64.8014169 -52.06401605 57.35087089 -57.02734375 46.8203125 C-60.89172969 37.09701884 -59.98462595 25.54325005 -56 16 C-50.67755041 6.17726783 -42.84261147 -0.89459701 -32.14453125 -4.3359375 C-20.6971375 -6.75339953 -10.43093175 -5.41371458 0 0 Z"/>
<path transform="translate(327,234)" fill="#FF5F5F" d="M0 0 C4.97671806 4.20363564 8.81707501 9.51081148 10 16 C10 18.64 10 21.28 10 24 C-3.2 24 -16.4 24 -30 24 C-27.09794972 33.3947646 -27.09794972 33.3947646 -20.13671875 39.10546875 C-15.59810597 41.00554613 -10.3073786 40.8347513 -5.7109375 39.171875 C-3.75107766 38.18827493 -1.88112404 37.12538862 0 36 C1.32863884 35.32402585 2.6608194 34.65484162 4 34 C5.32 35.32 6.64 36.64 8 38 C0.20970034 45.31672522 -5.6918424 47.74411082 -16.48828125 47.46875 C-23.05969094 46.59158742 -27.69045037 43.77712716 -31.91015625 38.703125 C-37.2346693 30.99957421 -37.85440448 24.28916503 -37 15 C-34.51686734 6.28582884 -29.1818509 2.00001894 -21.625 -2.375 C-14.40439361 -4.094192 -6.55722023 -3.63749323 0 0 Z"/>
<path transform="translate(468.734375,233.6640625)" fill="#FF5E5E" d="M0 0 C5.54043294 3.26694494 7.91803243 7.46695607 10.265625 13.3359375 C10.265625 16.9659375 10.265625 20.5959375 10.265625 24.3359375 C-2.604375 24.3359375 -15.474375 24.3359375 -28.734375 24.3359375 C-26.08153358 33.81041196 -26.08153358 33.81041196 -19.859375 39.59765625 C-14.336896 41.51631164 -8.76801049 41.08913583 -3.359375 39.0859375 C-0.68371028 37.30216102 1.81909632 35.42268255 4.265625 33.3359375 C5.585625 34.3259375 6.905625 35.3159375 8.265625 36.3359375 C7.91263271 39.14161757 7.49627054 40.13975095 5.3046875 42.00390625 C4.50804687 42.50535156 3.71140625 43.00679688 2.890625 43.5234375 C2.09914063 44.03261719 1.30765625 44.54179687 0.4921875 45.06640625 C-5.77389161 48.63917066 -14.30913272 48.44224807 -21.1875 46.72265625 C-27.3484088 43.96965173 -32.31146662 38.7319455 -34.90625 32.5390625 C-36.73559689 25.4632868 -37.23360664 16.56706522 -34.171875 9.7734375 C-26.53381724 -2.59806451 -12.90051895 -5.72004142 0 0 Z"/>
<path transform="translate(173,110)" fill="#FF5D5D" d="M0 0 C0.99 0 1.98 0 3 0 C3.25670659 43.179679 2.96580987 86.32833692 2.0625 129.5 C2.01847481 131.6392208 1.97446831 133.77844199 1.93048096 135.91766357 C1.82409369 141.05340386 1.7135118 146.18903803 1.59936714 151.32461166 C1.55757922 153.20809298 1.51645129 155.09158909 1.47608757 156.97510147 C1.34585354 162.9843866 1.18889091 168.9922693 1 175 C0.97064739 175.95846832 0.94129478 176.91693665 0.9110527 177.90444946 C0.81615153 180.82813046 0.70624129 183.75086272 0.59155273 186.67382812 C0.56272286 187.57860649 0.53389299 188.48338486 0.50418949 189.41558075 C0.46823894 190.24914345 0.43228838 191.08270615 0.39524841 191.94152832 C0.36723365 192.67857246 0.33921888 193.41561661 0.31035519 194.17499542 C0 196 0 196 -2 198 C-2.99 198 -3.98 198 -5 198 C-5.13259874 162.724766 -4.84095223 127.47723383 -4.13116455 92.20922852 C-4.03870844 87.55141279 -3.95150538 82.89350456 -3.86429787 78.23558807 C-3.61859984 65.12538489 -3.34941587 52.01582532 -3.06247711 38.90646362 C-3.00181109 36.08425266 -2.94431967 33.26199556 -2.88787842 30.43969727 C-2.80475286 26.30970246 -2.71223964 22.18004189 -2.61096001 18.05045319 C-2.57645986 16.58633002 -2.5452071 15.12212619 -2.5174427 13.6578598 C-2.47962541 11.69781674 -2.42859747 9.73804135 -2.37670898 7.77832031 C-2.35205063 6.70012024 -2.32739227 5.62192017 -2.30198669 4.51104736 C-2 2 -2 2 0 0 Z"/>
<path transform="translate(382.75,232.125)" fill="#FF5F5F" d="M0 0 C5.2814343 3.04698133 8.4192162 6.99106714 10.25 12.875 C10.41527522 15.62692123 10.48365572 18.27163188 10.4453125 21.01953125 C10.4424826 21.78931808 10.43965271 22.55910492 10.43673706 23.35221863 C10.42559157 25.79747425 10.40049781 28.24235612 10.375 30.6875 C10.3649629 32.35090615 10.35583833 34.01431807 10.34765625 35.67773438 C10.32567073 39.74363237 10.29118014 43.80925294 10.25 47.875 C7.94 47.875 5.63 47.875 3.25 47.875 C3.220271 46.52136353 3.220271 46.52136353 3.18994141 45.14038086 C3.11144835 41.76496242 3.02474332 38.38995602 2.93261719 35.01489258 C2.89453573 33.55924482 2.859648 32.10350963 2.828125 30.64770508 C2.78201745 28.54476852 2.72410453 26.44242325 2.6640625 24.33984375 C2.6326416 23.077771 2.6012207 21.81569824 2.56884766 20.51538086 C2.12896632 15.49312162 1.48638644 11.29320798 -1.875 7.4375 C-5.57689783 5.42559901 -8.67299233 5.2262031 -12.75 5.875 C-17.94719122 7.67402773 -20.07849441 10.12565673 -22.75 14.875 C-23.89294314 18.30382941 -23.95964472 21.11582838 -24.06640625 24.73046875 C-24.08718735 25.39210526 -24.10796844 26.05374176 -24.12937927 26.73542786 C-24.19464727 28.84434852 -24.25365344 30.95339135 -24.3125 33.0625 C-24.35570689 34.49415315 -24.39932188 35.92579404 -24.44335938 37.35742188 C-24.55030506 40.86315154 -24.65163641 44.36901786 -24.75 47.875 C-27.06 47.875 -29.37 47.875 -31.75 47.875 C-31.75 32.035 -31.75 16.195 -31.75 -0.125 C-29.44 -0.125 -27.13 -0.125 -24.75 -0.125 C-24.42 1.855 -24.09 3.835 -23.75 5.875 C-23.20730469 5.45347656 -22.66460937 5.03195313 -22.10546875 4.59765625 C-21.39003906 4.04980469 -20.67460937 3.50195312 -19.9375 2.9375 C-19.22980469 2.39222656 -18.52210938 1.84695312 -17.79296875 1.28515625 C-12.41260744 -2.42863043 -5.9920229 -1.79760687 0 0 Z"/>
<path transform="translate(438.5,153.8125)" fill="#FF5E5E" d="M0 0 C2.57191889 1.42218396 4.48892839 3.04767075 6.5 5.1875 C5.84 6.5075 5.18 7.8275 4.5 9.1875 C0.1149161 9.1875 -0.30557449 8.76364961 -3.5 6.1875 C-8.10676519 4.6519116 -12.52826081 4.34951084 -17 6.25 C-18.79688228 8.2514673 -18.79688228 8.2514673 -19.0625 11.6875 C-18.90040832 15.27790476 -18.90040832 15.27790476 -16.3359375 16.81640625 C-13.39119585 18.24010366 -10.75944119 18.96257075 -7.5625 19.625 C-2.64278121 20.77938119 0.60602898 21.99244685 4.5 25.1875 C5.03367187 25.61546875 5.56734375 26.0434375 6.1171875 26.484375 C8.54947733 29.4800766 8.08274893 32.67310272 7.984375 36.38671875 C7.2214618 40.79807975 5.05304427 43.54391174 1.5 46.1875 C-4.6705652 49.28320585 -12.41523373 49.43348216 -18.984375 47.4296875 C-22.74566119 45.63388545 -25.87119672 43.4735041 -28.5 40.1875 C-28.5 39.5275 -28.5 38.8675 -28.5 38.1875 C-25.03846154 35.1875 -25.03846154 35.1875 -22.5 35.1875 C-20.81237149 36.8329378 -19.1459651 38.50038577 -17.5 40.1875 C-12.98596146 42.44451927 -7.06550189 41.65715057 -2.375 40.25 C-0.09726884 37.74449572 -0.21348602 36.80542111 -0.1875 33.5 C-0.26782857 32.06097107 -0.36463226 30.62239809 -0.5 29.1875 C-1.09425781 29.01734375 -1.68851562 28.8471875 -2.30078125 28.671875 C-5.04250659 27.8702508 -7.77146147 27.03291154 -10.5 26.1875 C-11.9540625 25.75244141 -11.9540625 25.75244141 -13.4375 25.30859375 C-19.48369707 23.34522269 -23.38153208 21.88676897 -26.5 16.1875 C-27.45013518 12.11973374 -27.4230142 8.80124669 -25.3203125 5.125 C-19.04536842 -2.67803927 -9.04197862 -4.3622115 0 0 Z"/>
<path transform="translate(371.25,122.9375)" fill="#FF5D5D" d="M0 0 C0.89203125 0.00902344 1.7840625 0.01804687 2.703125 0.02734375 C3.37859375 0.03894531 4.0540625 0.05054687 4.75 0.0625 C4.75 2.0425 4.75 4.0225 4.75 6.0625 C3.71939453 6.10117188 3.71939453 6.10117188 2.66796875 6.140625 C1.76691406 6.19734375 0.86585938 6.2540625 -0.0625 6.3125 C-0.95582031 6.35890625 -1.84914063 6.4053125 -2.76953125 6.453125 C-5.28919251 6.88616383 -5.28919251 6.88616383 -7.03125 8.5 C-8.92620034 12.48425456 -8.82476791 16.45137841 -8.9375 20.8125 C-8.97166016 21.70066406 -9.00582031 22.58882812 -9.04101562 23.50390625 C-9.12327542 25.68966639 -9.18832034 27.87606233 -9.25 30.0625 C-5.62 30.0625 -1.99 30.0625 1.75 30.0625 C1.75 32.0425 1.75 34.0225 1.75 36.0625 C-1.88 36.0625 -5.51 36.0625 -9.25 36.0625 C-9.25 49.9225 -9.25 63.7825 -9.25 78.0625 C-11.56 78.0625 -13.87 78.0625 -16.25 78.0625 C-16.25 64.2025 -16.25 50.3425 -16.25 36.0625 C-19.55 36.0625 -22.85 36.0625 -26.25 36.0625 C-26.25 34.0825 -26.25 32.1025 -26.25 30.0625 C-22.95 30.0625 -19.65 30.0625 -16.25 30.0625 C-16.29640625 28.68835938 -16.3428125 27.31421875 -16.390625 25.8984375 C-16.42815677 24.07814682 -16.46455542 22.25783252 -16.5 20.4375 C-16.53351563 19.53386719 -16.56703125 18.63023437 -16.6015625 17.69921875 C-16.68815444 11.7676706 -16.09902364 8.62778932 -12.25 4.0625 C-11.755 3.464375 -11.26 2.86625 -10.75 2.25 C-7.58829473 -0.25301667 -3.88390221 -0.05110398 0 0 Z"/>
<path transform="translate(384,140)" fill="#FF5C5C" d="M0 0 C2.31 0 4.62 0 7 0 C7 4.29 7 8.58 7 13 C11.29 13 15.58 13 20 13 C20 14.98 20 16.96 20 19 C15.71 19 11.42 19 7 19 C7.06884472 23.64530679 7.15679304 28.28971059 7.26245117 32.93432617 C7.29570188 34.51430243 7.32373346 36.09439752 7.34643555 37.67456055 C7.37998016 39.94631579 7.43229227 42.21698203 7.48828125 44.48828125 C7.49467117 45.19463211 7.5010611 45.90098297 7.50764465 46.6287384 C7.59518877 49.54976321 7.67544903 51.54143501 9.390625 53.96484375 C11.65837392 55.42346866 13.0614177 55.1061508 15.6875 54.6875 C16.49574219 54.56761719 17.30398438 54.44773438 18.13671875 54.32421875 C18.75160156 54.21722656 19.36648438 54.11023438 20 54 C20.04254356 55.99954746 20.04080783 58.00041636 20 60 C18.14234332 61.85765668 15.24167111 61.25942629 12.75 61.3125 C11.61046875 61.34988281 10.4709375 61.38726562 9.296875 61.42578125 C5.34986762 60.91603741 3.77006048 59.80544446 1 57 C-0.23180134 53.30459598 -0.12412112 49.89696622 -0.09765625 46.05078125 C-0.0962413 45.27816452 -0.09482635 44.50554779 -0.09336853 43.70951843 C-0.08777466 41.24380611 -0.07522333 38.77818485 -0.0625 36.3125 C-0.05748421 34.63997527 -0.05292144 32.96744912 -0.04882812 31.29492188 C-0.03780724 27.19657954 -0.02054684 23.09830521 0 19 C-3.3 19 -6.6 19 -10 19 C-10 17.02 -10 15.04 -10 13 C-6.7 13 -3.4 13 0 13 C0 8.71 0 4.42 0 0 Z"/>
<path transform="translate(52,141)" fill="#FFFAFA" d="M0 0 C8.59839281 2.87098879 16.54907149 10.45668492 20.7890625 18.31640625 C21.18867187 19.20199219 21.58828125 20.08757812 22 21 C9.38370173 19.79694019 -3.52403847 18.47596153 -12.9375 9.0625 C-14 7 -14 7 -13.875 4.375 C-11.66678512 -1.61872611 -5.29765418 -0.7181951 0 0 Z"/>
<path transform="translate(128.0625,142.5)" fill="#FFFCFC" d="M0 0 C0.639375 0.495 1.27875 0.99 1.9375 1.5 C1.75207012 5.48674248 1.25223429 7.16105538 -1.5 10.125 C-10.58058042 16.88112562 -22.03457693 18.8500928 -33.0625 18.5 C-29.45975707 10.59153991 -22.17700273 3.4610279 -14.6875 -0.875 C-9.5117484 -2.10732181 -4.83051175 -2.36596494 0 0 Z"/>
<path transform="translate(410,232)" fill="#FF6D6D" d="M0 0 C2.64 0 5.28 0 8 0 C8 15.84 8 31.68 8 48 C5.36 48 2.72 48 0 48 C0 32.16 0 16.32 0 0 Z"/>
<path transform="translate(465.3125,238.625)" fill="#FFFBFB" d="M0 0 C2.94336566 2.60111384 4.84572428 4.90396115 6.6875 8.375 C6.6875 10.025 6.6875 11.675 6.6875 13.375 C-3.8725 13.375 -14.4325 13.375 -25.3125 13.375 C-24.36916252 7.71497515 -23.47571254 5.03129288 -19.3125 1.375 C-12.95346899 -2.29367173 -6.64183298 -3.25825769 0 0 Z"/>
<path transform="translate(319,237)" fill="#FFFBFB" d="M0 0 C4.36201446 2.18100723 7.42681675 4.84331936 10 9 C10 10.98 10 12.96 10 15 C-0.56 15 -11.12 15 -22 15 C-20.74165423 8.70827115 -18.99788724 5.51839431 -13.875 1.625 C-9.40389355 -0.66343728 -4.90176123 -0.80210638 0 0 Z"/>
<path transform="translate(327,153)" fill="#FF5D5D" d="M0 0 C2.31 0 4.62 0 7 0 C7 15.84 7 31.68 7 48 C4.69 48 2.38 48 0 48 C0 32.16 0 16.32 0 0 Z"/>
<path transform="translate(331.5625,130.25)" fill="#FF6363" d="M0 0 C2.4375 0.75 2.4375 0.75 4.4375 2.75 C4.10778521 6.04714793 3.8148161 7.3726839 1.4375 9.75 C-1.6875 9.375 -1.6875 9.375 -4.5625 8.75 C-4.8925 6.44 -5.2225 4.13 -5.5625 1.75 C-2.5625 -0.25 -2.5625 -0.25 0 0 Z"/>
<path transform="translate(412,209)" fill="#FF6060" d="M0 0 C3.29714793 0.32971479 4.6226839 0.6226839 7 3 C6.67028521 6.29714793 6.3773161 7.6226839 4 10 C0.70285207 9.67028521 -0.6226839 9.3773161 -3 7 C-2.67028521 3.70285207 -2.3773161 2.3773161 0 0 Z"/>
</svg>