<?xml version="1.0" encoding="UTF-8"?>
<svg version="1.1" xmlns="http://www.w3.org/2000/svg" width="498" height="245">
<path d="M0 0 C164.34 0 328.68 0 498 0 C498 80.85 498 161.7 498 245 C333.66 245 169.32 245 0 245 C0 164.15 0 83.3 0 0 Z " fill="#FEFEFE" transform="translate(0,0)"/>
<path d="M0 0 C2.75329021 1.79562405 4.52627461 3.05254922 6 6 C6.41081422 9.01263762 6.57293414 11.11455633 4.8828125 13.7265625 C3.64587643 15.20110211 2.32734487 16.60628788 1 18 C1.59425781 18.18433594 2.18851562 18.36867188 2.80078125 18.55859375 C10.61655001 21.29350506 18.76969227 26.00545614 23.37011719 33.1184082 C24.82285949 35.17863558 24.82285949 35.17863558 27.05200195 35.43237305 C27.83534912 35.39668213 28.61869629 35.36099121 29.42578125 35.32421875 C30.31475098 35.28731934 31.2037207 35.25041992 32.11962891 35.21240234 C56.24122902 33.82339758 56.24122902 33.82339758 78.27734375 24.85546875 C82.68408451 22.26351948 86.95392679 22.55293095 91.9375 22.75 C93.24944336 22.77707031 93.24944336 22.77707031 94.58789062 22.8046875 C96.72574108 22.85141647 98.86302045 22.92314559 101 23 C89.09543238 41.70680466 73.52956092 57.80834116 55 70 C54.39333496 70.40299316 53.78666992 70.80598633 53.16162109 71.22119141 C37.37001399 81.57407334 18.21182098 90.53071329 -1 90 C-1 90.66 -1 91.32 -1 92 C-0.38125 92.12375 0.2375 92.2475 0.875 92.375 C3 93 3 93 5 95 C5 95.99 5 96.98 5 98 C5.58007812 98.10957031 6.16015625 98.21914062 6.7578125 98.33203125 C13.61977406 99.72480563 19.34000415 101.4438511 24 107 C24 107.66 24 108.32 24 109 C6.18 109 -11.64 109 -30 109 C-28.81229997 104.24919987 -28.02789111 103.60134634 -24 101 C-20.01038158 99.35515732 -16.33864486 98 -12 98 C-11.5359375 96.824375 -11.5359375 96.824375 -11.0625 95.625 C-10 93 -10 93 -9 91 C-9.6290625 90.82984375 -10.258125 90.6596875 -10.90625 90.484375 C-17.56869353 88.59802051 -23.52075498 86.24616817 -29.34765625 82.484375 C-32.24938722 80.86043131 -34.91172542 80.08687249 -38.125 79.25 C-52.78603756 74.8698704 -65.40910627 64.24533498 -73 51 C-78.47807487 39.86901808 -80.37577705 30.33801321 -80 18 C-75.47990798 18.48714773 -73.55348134 20.01433384 -70.375 23.1875 C-60.24928901 32.66335193 -49.72157876 36.08143375 -35.9765625 35.67578125 C-30.42966284 35.10750491 -27.76849365 31.73869344 -24.3125 27.6171875 C-19.9012086 22.62467865 -13.90032488 19.90974926 -8 17 C-8.66 16.505 -9.32 16.01 -10 15.5 C-12.30172592 12.6228426 -12.65101808 10.64107245 -12.4453125 6.97265625 C-10.97112337 0.44225703 -5.94328138 -0.95517022 0 0 Z " fill="#F5C277" transform="translate(80,109)"/>
<path d="M0 0 C5.91025575 0.91911458 11.04395449 4.51654355 14.70703125 9.13671875 C16.58915477 12.07109577 17.95772617 14.74817851 19.0625 18.0625 C19.59617188 17.60359375 20.12984375 17.1446875 20.6796875 16.671875 C27.26702799 11.24700636 33.48345118 7.71664983 42 6.5 C45.0625 7.0625 45.0625 7.0625 46.9375 9.125 C48.3149782 12.72174865 49.19893473 15.17411024 49.0625 19.0625 C45.24288858 24.33959473 38.95410538 26.7913596 33.0625 29.0625 C34.81501682 31.72446684 36.582917 34.04190364 39.0625 36.0625 C42.20063168 36.0625 44.12608759 35.81024814 47.0625 35.0625 C48.55993584 34.85551655 50.06010487 34.66722773 51.5625 34.5 C52.7175 34.355625 53.8725 34.21125 55.0625 34.0625 C52.20665227 35.96639849 50.1313238 36.75712177 46.875 37.6875 C45.52341797 38.07808594 45.52341797 38.07808594 44.14453125 38.4765625 C43.45746094 38.66992188 42.77039063 38.86328125 42.0625 39.0625 C44.0425 41.7025 46.0225 44.3425 48.0625 47.0625 C47.0725 47.3925 46.0825 47.7225 45.0625 48.0625 C44.0725 47.5675 44.0725 47.5675 43.0625 47.0625 C43.0625 48.0525 43.0625 49.0425 43.0625 50.0625 C44.0525 50.5575 44.0525 50.5575 45.0625 51.0625 C44.4025 51.0625 43.7425 51.0625 43.0625 51.0625 C43.0625 63.9325 43.0625 76.8025 43.0625 90.0625 C34.0625 94.0625 34.0625 94.0625 31.0625 94.0625 C31.05703156 93.16167191 31.05703156 93.16167191 31.05145264 92.24264526 C31.00957548 85.98038318 30.94019322 79.71885044 30.85498047 73.45703125 C30.82679071 71.12149355 30.8055663 68.7858608 30.79150391 66.45019531 C30.77004754 63.08869841 30.72338094 59.72834193 30.671875 56.3671875 C30.67064636 55.32634003 30.66941772 54.28549255 30.66815186 53.21310425 C30.54700665 47.18882161 30.07228284 43.65355811 26.0625 39.0625 C23.60727359 36.91133433 23.60727359 36.91133433 20.9375 35.1875 C20.06867188 34.59195313 19.19984375 33.99640625 18.3046875 33.3828125 C16.20893971 31.8933621 16.20893971 31.8933621 14.0625 32.0625 C10.09990657 39.8510457 8.54595212 47.53265029 7.0625 56.0625 C8.3825 56.3925 9.7025 56.7225 11.0625 57.0625 C11.0625 71.2525 11.0625 85.4425 11.0625 100.0625 C10.7325 100.0625 10.4025 100.0625 10.0625 100.0625 C9.5675 79.2725 9.5675 79.2725 9.0625 58.0625 C7.7425 57.7325 6.4225 57.4025 5.0625 57.0625 C2.92052506 54.15553401 2.0625 52.70728912 2.0625 49.0625 C1.0725 49.5575 1.0725 49.5575 0.0625 50.0625 C0.03744385 50.9282666 0.0123877 51.7940332 -0.01342773 52.68603516 C-0.10989008 55.97012948 -0.20901732 59.25412284 -0.30981445 62.53808594 C-0.3525104 63.9459327 -0.39421445 65.35380998 -0.43481445 66.76171875 C-0.70842043 76.2197033 -1.18266391 85.62843809 -1.9375 95.0625 C-3.62022986 94.43748605 -5.28380643 93.76072617 -6.9375 93.0625 C-7.85845459 92.71509766 -8.77940918 92.36769531 -9.72827148 92.00976562 C-11.9375 90.0625 -11.9375 90.0625 -12.33743286 88.23120117 C-12.45258269 85.77242356 -12.39332943 83.36538989 -12.28515625 80.90625 C-12.26859482 80.00757202 -12.25203339 79.10889404 -12.23497009 78.1829834 C-12.18045075 75.30835541 -12.09341753 72.43610966 -12 69.5625 C-11.91186889 66.68899346 -11.83128472 63.8163469 -11.77574158 60.9420166 C-11.74086854 59.15303671 -11.68705444 57.36430663 -11.61256409 55.57653809 C-11.5670939 53.33369494 -11.54919079 51.27202374 -11.9375 49.0625 C-13.76925216 46.93191139 -13.76925216 46.93191139 -15.9375 46.0625 C-14.2875 46.3925 -12.6375 46.7225 -10.9375 47.0625 C-10.9375 43.4325 -10.9375 39.8025 -10.9375 36.0625 C-6.3175 34.0825 -1.6975 32.1025 3.0625 30.0625 C1.680625 29.835625 0.29875 29.60875 -1.125 29.375 C-5.68161256 28.37756827 -7.97694351 26.76319562 -10.9375 23.0625 C-12.75702898 19.42344203 -12.71832631 15.94953318 -11.9375 12.0625 C-9.4654031 7.06693795 -6.1647523 0.49615713 0 0 Z " fill="#8DB7EE" transform="translate(123.9375,11.9375)"/>
<path d="M0 0 C0.07654536 4.51617599 0.10228696 8.59085217 -1 13 C-4.3 13.33 -7.6 13.66 -11 14 C-11.66 18.29 -12.32 22.58 -13 27 C-6.73 27 -0.46 27 6 27 C6 22.71 6 18.42 6 14 C11.28 14 16.56 14 22 14 C22 17.96 22 21.92 22 26 C25.96 26 29.92 26 34 26 C34 30.29 34 34.58 34 39 C30.04 39 26.08 39 22 39 C22.14035305 42.62528953 22.28702517 46.25012883 22.4375 49.875 C22.47681641 50.90753906 22.51613281 51.94007812 22.55664062 53.00390625 C22.59853516 53.99003906 22.64042969 54.97617188 22.68359375 55.9921875 C22.73858032 57.35899658 22.73858032 57.35899658 22.79467773 58.75341797 C22.86577065 61.03483481 22.86577065 61.03483481 24 63 C26.12576782 63.46651207 26.12576782 63.46651207 28.5625 63.625 C30.7590625 63.810625 30.7590625 63.810625 33 64 C33 67.96 33 71.92 33 76 C26.52838426 78.15720525 18.62161463 78.1300063 12.375 75.4375 C6.23664761 69.13761202 5.55541627 64.41482852 5.6484375 55.78710938 C5.68195313 54.55798828 5.71546875 53.32886719 5.75 52.0625 C5.76804687 50.80630859 5.78609375 49.55011719 5.8046875 48.25585938 C5.85161703 45.17024295 5.92335351 42.0850213 6 39 C-0.27 39 -6.54 39 -13 39 C-13 51.21 -13 63.42 -13 76 C-18.28 76 -23.56 76 -29 76 C-29 63.79 -29 51.58 -29 39 C-31.97 39 -34.94 39 -38 39 C-38 34.71 -38 30.42 -38 26 C-35.03 26 -32.06 26 -29 26 C-29.04640625 25.31035156 -29.0928125 24.62070312 -29.140625 23.91015625 C-29.42849312 16.41530411 -28.62874102 10.27710397 -23.64453125 4.40234375 C-17.37424841 -1.36362679 -7.93984509 -2.64661503 0 0 Z " fill="#8DB8F0" transform="translate(375,26)"/>
<path d="M0 0 C-0.5647301 3.90829085 -2.42131971 5.89920223 -5.0625 8.75 C-6.16271484 9.94882812 -6.16271484 9.94882812 -7.28515625 11.171875 C-7.85105469 11.77515625 -8.41695313 12.3784375 -9 13 C-11.81782144 11.89966226 -14.48781796 10.75130849 -17.1875 9.375 C-22.54688577 7.11964026 -27.94666658 6.99835179 -33.46484375 8.80859375 C-38.49840732 11.22905943 -41.75626649 14.22525124 -44.1875 19.2734375 C-46.21901933 26.09074754 -46.30838378 33.97194941 -43.4375 40.5625 C-40.55302348 45.36309306 -36.23899886 48.25366705 -31 50 C-29.04351683 50.09475844 -27.08377045 50.12988471 -25.125 50.125 C-24.09632813 50.12757812 -23.06765625 50.13015625 -22.0078125 50.1328125 C-18.6430368 50.0609205 -18.6430368 50.0609205 -14 49 C-14 44.71 -14 40.42 -14 36 C-18.62 36 -23.24 36 -28 36 C-28 31.71 -28 27.42 -28 23 C-18.43 23 -8.86 23 1 23 C1 35.21 1 47.42 1 60 C-13.55507256 65.82202902 -27.83643296 69.31815294 -43 63 C-52.57698971 58.31560286 -58.75747544 51.82402086 -62.9375 42 C-65.70193777 32.0515456 -65.66633483 20.61214715 -61 11.3125 C-55.08482038 1.06740889 -47.24808263 -3.98679275 -36.09375 -7.62109375 C-22.24080483 -10.12806331 -11.97785004 -6.34826052 0 0 Z " fill="#8CB8F0" transform="translate(300,38)"/>
<path d="M0 0 C1.32 1.32 2.64 2.64 4 4 C0.7 7.63 -2.6 11.26 -6 15 C-7.32 14.34 -8.64 13.68 -10 13 C-16.036767 10.29386307 -21.36657052 8.87336991 -28 10 C-33.95157109 12.48493432 -38.34172298 16.43799702 -41.08203125 22.32421875 C-43.29281507 28.76841841 -42.69402187 36.07563461 -39.9765625 42.28515625 C-37.20963557 47.14387994 -33.21171548 50.1995892 -28 52 C-22.12494347 52.43903276 -16.78102827 52.15620565 -11 51 C-11 46.71 -11 42.42 -11 38 C-15.62 38 -20.24 38 -25 38 C-25 33.71 -25 29.42 -25 25 C-15.43 25 -5.86 25 4 25 C4 37.21 4 49.42 4 62 C-10.59798329 67.83919331 -24.22804108 71.11417113 -39.3828125 65.26171875 C-48.72383104 60.7585113 -55.13294852 53.74912683 -59.23828125 44.30859375 C-62.31398464 34.98684655 -62.65259564 23.34220403 -58.44921875 14.375 C-52.66539994 4.89639667 -44.86048356 -1.09748772 -34.75 -5.375 C-22.61075907 -7.39820682 -10.76232136 -6.19035777 0 0 Z " fill="#F5C277" transform="translate(267,128)"/>
<path d="M0 0 C6.08335414 3.69975711 10.36424156 9.58725883 12.29296875 16.39453125 C12.29296875 20.35453125 12.29296875 24.31453125 12.29296875 28.39453125 C0.74296875 28.39453125 -10.80703125 28.39453125 -22.70703125 28.39453125 C-20.41152425 34.01279155 -20.41152425 34.01279155 -18.01953125 35.76953125 C-12.21716487 37.33773838 -7.20249404 36.59271637 -1.70703125 34.39453125 C-1.70703125 33.73453125 -1.70703125 33.07453125 -1.70703125 32.39453125 C2.96402667 33.95155056 6.3800256 36.47900498 10.29296875 39.39453125 C6.49316832 44.64804321 2.9114366 48.30921881 -3.70703125 49.39453125 C-12.61701317 50.22229731 -21.16631301 50.76004231 -28.70703125 45.39453125 C-34.70508842 40.06292487 -38.23040899 35.17183806 -39.04296875 27.02734375 C-39.14343296 18.00565774 -38.23780631 12.61184591 -32.45703125 5.70703125 C-22.56807702 -2.60868026 -12.26305378 -5.5173994 0 0 Z " fill="#F5C377" transform="translate(469.70703125,145.60546875)"/>
<path d="M0 0 C6.08335414 3.69975711 10.36424156 9.58725883 12.29296875 16.39453125 C12.29296875 20.35453125 12.29296875 24.31453125 12.29296875 28.39453125 C0.74296875 28.39453125 -10.80703125 28.39453125 -22.70703125 28.39453125 C-20.41152425 34.01279155 -20.41152425 34.01279155 -18.01953125 35.76953125 C-12.21716487 37.33773838 -7.20249404 36.59271637 -1.70703125 34.39453125 C-1.70703125 33.73453125 -1.70703125 33.07453125 -1.70703125 32.39453125 C2.96402667 33.95155056 6.3800256 36.47900498 10.29296875 39.39453125 C6.49316832 44.64804321 2.9114366 48.30921881 -3.70703125 49.39453125 C-12.61701317 50.22229731 -21.16631301 50.76004231 -28.70703125 45.39453125 C-34.70508842 40.06292487 -38.23040899 35.17183806 -39.04296875 27.02734375 C-39.14343296 18.00565774 -38.23780631 12.61184591 -32.45703125 5.70703125 C-22.56807702 -2.60868026 -12.26305378 -5.5173994 0 0 Z " fill="#F5C377" transform="translate(320.70703125,145.60546875)"/>
<path d="M0 0 C6.2154238 2.08282819 10.06382273 5.22527877 13.08935547 11.1237793 C14.3022548 14.95465519 14.24766338 18.6083951 14.1953125 22.58203125 C14.1924826 23.39621017 14.18965271 24.2103891 14.18673706 25.04924011 C14.17558584 27.637146 14.15049083 30.22469958 14.125 32.8125 C14.11496365 34.57226061 14.10583894 36.33202667 14.09765625 38.09179688 C14.07736875 42.39477457 14.03821119 46.69699518 14 51 C8.72 51 3.44 51 -2 51 C-2.03738281 48.73640625 -2.07476562 46.4728125 -2.11328125 44.140625 C-2.15952262 41.94293681 -2.21074652 39.7454172 -2.26245117 37.54785156 C-2.2956588 36.0232166 -2.32370378 34.49845994 -2.34643555 32.97363281 C-2.38005958 30.77877046 -2.43237542 28.58501912 -2.48828125 26.390625 C-2.51446533 25.07094727 -2.54064941 23.75126953 -2.56762695 22.39160156 C-3.01312413 18.89705229 -3.52403123 17.44820018 -6 15 C-7.93425486 14.37276792 -7.93425486 14.37276792 -10 14.5 C-11.0209375 14.48453125 -11.0209375 14.48453125 -12.0625 14.46875 C-14.91102626 15.24979752 -15.52371152 16.4587095 -17 19 C-17.50537154 22.48315506 -17.50537154 22.48315506 -17.51171875 26.390625 C-17.52966995 27.09523865 -17.54762115 27.79985229 -17.56611633 28.52581787 C-17.62011858 30.76715179 -17.65408088 33.00827405 -17.6875 35.25 C-17.72068218 36.77346689 -17.75517269 38.29690589 -17.79101562 39.8203125 C-17.87829418 43.54690369 -17.93844173 47.27254069 -18 51 C-23.61 51 -29.22 51 -35 51 C-35 34.5 -35 18 -35 1 C-29.72 1 -24.44 1 -19 1 C-18.67 2.65 -18.34 4.3 -18 6 C-17.45472656 5.566875 -16.90945313 5.13375 -16.34765625 4.6875 C-10.88500495 0.65354211 -6.81087168 -1.41289359 0 0 Z " fill="#F5C378" transform="translate(378,143)"/>
<path d="M0 0 C3.6806811 1.32010294 6.53652754 2.91919917 9.625 5.3125 C10.38039062 5.88613281 11.13578125 6.45976563 11.9140625 7.05078125 C14.93987217 9.87827006 16.79536827 12.126719 17.26000977 16.38023376 C17.34760883 19.3998963 17.33676666 22.40514964 17.29296875 25.42578125 C17.28872391 26.52850876 17.28447906 27.63123627 17.28010559 28.76737976 C17.26333905 32.28267023 17.22568951 35.79738336 17.1875 39.3125 C17.17245059 41.69855942 17.15876264 44.08462784 17.14648438 46.47070312 C17.11344212 52.31399842 17.06326236 58.15695796 17 64 C14.15667525 65.21470725 11.29909004 66.39154538 8.4375 67.5625 C7.63763672 67.90474609 6.83777344 68.24699219 6.01367188 68.59960938 C-0.0528059 71.05096162 -4.06280845 71.07435403 -10.43359375 69.3359375 C-12.91083082 68.14802265 -14.24921892 67.14168999 -16 65 C-16.36547852 61.96704102 -16.36547852 61.96704102 -16.25390625 58.31640625 C-16.23875977 57.65889877 -16.22361328 57.0013913 -16.20800781 56.32395935 C-16.15547945 54.21512284 -16.07798924 52.10803254 -16 50 C-15.96238059 48.62309307 -15.92647695 47.24613814 -15.89233398 45.86914062 C-15.78532466 41.76601246 -15.64478011 37.66444123 -15.5 33.5625 C-15.45159165 32.13737763 -15.40341366 30.71224741 -15.35546875 29.28710938 C-15.23961786 25.85797895 -15.12070875 22.42896329 -15 19 C-14.01 18.67 -13.02 18.34 -12 18 C-11.4121875 19.670625 -11.4121875 19.670625 -10.8125 21.375 C-9.57517033 24.31960666 -9.26393503 24.85882545 -6.3125 26.4375 C-5.549375 26.623125 -4.78625 26.80875 -4 27 C-4.99 26.34 -5.98 25.68 -7 25 C-6.45516076 16.16984683 -5.18451288 7.40644697 0 0 Z " fill="#F4C275" transform="translate(138,43)"/>
<path d="M0 0 C0.99 1.32 1.98 2.64 3 4 C0.36 6.64 -2.28 9.28 -5 12 C-6.65 11.34 -8.3 10.68 -10 10 C-13.47325181 8.8422494 -16.36067448 8.93133348 -20 9 C-20.33 10.65 -20.66 12.3 -21 14 C-19.97519531 14.32613281 -18.95039063 14.65226562 -17.89453125 14.98828125 C-16.53374877 15.42936247 -15.17307751 15.87078693 -13.8125 16.3125 C-13.13896484 16.52583984 -12.46542969 16.73917969 -11.77148438 16.95898438 C-6.93965269 18.53816839 -2.6247713 20.15112232 0.8125 24.0625 C2.56126745 28.38839844 2.56223193 32.39577639 2 37 C0.00448129 41.58969304 -2.94481275 45.14418322 -7.6171875 47.08984375 C-11.60692415 48.16329484 -15.2001234 48.38323024 -19.3125 48.375 C-20.06289551 48.37483887 -20.81329102 48.37467773 -21.58642578 48.37451172 C-28.95697484 48.22278861 -33.9304943 46.04633714 -40 42 C-38.34908222 37.70761377 -35.26245434 35.1206085 -32 32 C-27.26315789 33.84210526 -27.26315789 33.84210526 -25.125 35.125 C-22.03860553 36.39586831 -19.29775944 36.18320886 -16 36 C-15.01 35.505 -15.01 35.505 -14 35 C-14.495 32.525 -14.495 32.525 -15 30 C-16.01320313 29.69707031 -17.02640625 29.39414063 -18.0703125 29.08203125 C-19.42210689 28.6595955 -20.77365666 28.23637642 -22.125 27.8125 C-23.12273437 27.51762695 -23.12273437 27.51762695 -24.140625 27.21679688 C-29.06847531 25.64664849 -32.28760387 23.62776704 -36 20 C-37.47312489 15.58062533 -37.81743086 11.60486051 -37 7 C-34.1362053 1.79627549 -29.94046928 -1.91205819 -24.22265625 -3.59765625 C-15.71470941 -5.13775911 -7.65489371 -4.18950264 0 0 Z " fill="#8DB8F0" transform="translate(451,55)"/>
<path d="M0 0 C5.61 0 11.22 0 17 0 C17 16.5 17 33 17 50 C11.39 50 5.78 50 0 50 C0 33.5 0 17 0 0 Z " fill="#F5C57C" transform="translate(404,144)"/>
<path d="M0 0 C5.61 0 11.22 0 17 0 C17 16.5 17 33 17 50 C11.39 50 5.78 50 0 50 C0 33.5 0 17 0 0 Z " fill="#91BAF0" transform="translate(314,52)"/>
<path d="M0 0 C1.53668865 0.22467831 3.07968054 0.40796805 4.625 0.5625 C5.44226563 0.64628906 6.25953125 0.73007812 7.1015625 0.81640625 C7.72804688 0.87699219 8.35453125 0.93757813 9 1 C6.10357159 3.35082212 3.34643669 4.83519406 -0.125 6.1875 C-1.42824219 6.70376953 -1.42824219 6.70376953 -2.7578125 7.23046875 C-5 8 -5 8 -7 8 C-7 11.63 -7 15.26 -7 19 C-7.99 19 -8.98 19 -10 19 C-9.01 19.66 -8.02 20.32 -7 21 C-6.671875 23.30859375 -6.671875 23.30859375 -6.75 26.4375 C-6.77578125 27.66597656 -6.8015625 28.89445312 -6.828125 30.16015625 C-6.88350065 31.7735044 -6.94108596 33.38677718 -7 35 C-7.03673828 36.09038574 -7.07347656 37.18077148 -7.11132812 38.30419922 C-7.37915323 46.20397689 -7.67868833 54.10222744 -8 62 C-9.8136477 61.02296079 -11.62588817 60.04330895 -13.4375 59.0625 C-14.95150391 58.24458984 -14.95150391 58.24458984 -16.49609375 57.41015625 C-19 56 -19 56 -20 55 C-20.08871273 51.97022196 -20.1151935 48.96332978 -20.09765625 45.93359375 C-20.0962413 45.02497086 -20.09482635 44.11634796 -20.09336853 43.18019104 C-20.08775193 40.26592779 -20.07519665 37.35174019 -20.0625 34.4375 C-20.05748714 32.46679798 -20.05292386 30.49609476 -20.04882812 28.52539062 C-20.03777711 23.68356441 -20.02050138 18.84179505 -20 14 C-20.66 14 -21.32 14 -22 14 C-22 10.37 -22 6.74 -22 3 C-5.39823009 -2.69911504 -5.39823009 -2.69911504 0 0 Z " fill="#F2C37C" transform="translate(120,40)"/>
<path d="M0 0 C4.43775121 0.31983793 8.15056444 1.36310421 12.33984375 2.78125 C13.07138672 3.01972656 13.80292969 3.25820313 14.55664062 3.50390625 C16.34155535 4.08721172 18.12239932 4.68294935 19.90234375 5.28125 C19.90234375 9.90125 19.90234375 14.52125 19.90234375 19.28125 C19.24234375 19.61125 18.58234375 19.94125 17.90234375 20.28125 C17.57234375 33.15125 17.24234375 46.02125 16.90234375 59.28125 C13.27234375 60.60125 9.64234375 61.92125 5.90234375 63.28125 C5.90234375 49.09125 5.90234375 34.90125 5.90234375 20.28125 C7.22234375 20.28125 8.54234375 20.28125 9.90234375 20.28125 C7.92234375 17.31125 5.94234375 14.34125 3.90234375 11.28125 C5.88234375 10.62125 7.86234375 9.96125 9.90234375 9.28125 C8.13890625 9.77625 8.13890625 9.77625 6.33984375 10.28125 C4.1484375 10.58984375 4.1484375 10.58984375 1.90234375 10.28125 C-0.92268191 7.96314483 -3.0081114 5.26538124 -5.09765625 2.28125 C-3.09765625 0.28125 -3.09765625 0.28125 0 0 Z " fill="#F3C277" transform="translate(161.09765625,38.71875)"/>
<path d="M0 0 C3.6806811 1.32010294 6.53652754 2.91919917 9.625 5.3125 C10.38039062 5.88613281 11.13578125 6.45976563 11.9140625 7.05078125 C14.79698878 9.74475169 16.76140277 12.06513607 17.26000977 16.10850525 C17.34707758 18.70907894 17.33700609 21.29286242 17.29296875 23.89453125 C17.28872391 24.84188644 17.28447906 25.78924164 17.28010559 26.76530457 C17.26335689 29.78132947 17.22571146 32.79667816 17.1875 35.8125 C17.17244825 37.86131845 17.1587607 39.91014741 17.14648438 41.95898438 C17.11346579 46.9729155 17.06170947 51.98634322 17 57 C16.67 57 16.34 57 16 57 C16 46.11 16 35.22 16 24 C11.545 25.485 11.545 25.485 7 27 C3.93359375 27.51171875 3.93359375 27.51171875 1.4375 27.6875 C0.59058594 27.75324219 -0.25632813 27.81898437 -1.12890625 27.88671875 C-1.74636719 27.92410156 -2.36382812 27.96148437 -3 28 C-3.33 27.34 -3.66 26.68 -4 26 C-4.99 25.67 -5.98 25.34 -7 25 C-6.45516076 16.16984683 -5.18451288 7.40644697 0 0 Z " fill="#F2C177" transform="translate(138,43)"/>
<path d="M0 0 C0.62261719 0.52787109 0.62261719 0.52787109 1.2578125 1.06640625 C8.1540141 6.59202385 17.20282985 12.32331163 26 14 C27.5056904 19.80766296 28.21824777 24.9981863 28 31 C18.82565301 29.05329883 11.48887535 23.13684643 6.3046875 15.50390625 C0 5.25498188 0 5.25498188 0 0 Z " fill="#FEFCF8" transform="translate(5,135)"/>
<path d="M0 0 C4.00138723 3.04803658 6.06348244 5.95818856 6.875 10.9375 C6.91625 11.948125 6.9575 12.95875 7 14 C5.35 14 3.7 14 2 14 C1.938125 13.05125 1.87625 12.1025 1.8125 11.125 C1.544375 10.09375 1.27625 9.0625 1 8 C-2.55033625 6.22483188 -6.37424096 5.25812828 -10.1875 4.1875 C-11.40050781 3.84589844 -12.61351562 3.50429687 -13.86328125 3.15234375 C-15.24207451 2.76782378 -16.62098902 2.38373844 -18 2 C-18.7945459 1.77844238 -19.5890918 1.55688477 -20.40771484 1.32861328 C-25.60364288 -0.11969734 -30.80126459 -1.56180109 -36 -3 C-23.55340692 -11.29772872 -12.08019123 -6.88418687 0 0 Z " fill="#92BAEE" transform="translate(170,118)"/>
<path d="M0 0 C3.49406769 1.66762322 4.82670681 2.74006022 7 6 C7.4375 8.875 7.4375 8.875 7 12 C4.5625 14.8125 4.5625 14.8125 2 17 C1.67 17.33 1.34 17.66 1 18 C-3.16400962 18.40038554 -5.32250696 18.44184328 -8.875 16.125 C-11.38666318 13.61333682 -11.92153796 12.70615837 -12.3125 9.1875 C-11.92835642 5.2692355 -10.70743683 3.78706733 -8 1 C-5.17998673 -0.41000664 -3.12992745 -0.24548451 0 0 Z " fill="#F5C47B" transform="translate(415,120)"/>
<path d="M0 0 C3.64751591 0.28057815 5.34775143 1.07331357 8.25 3.25 C10.59549674 6.76824511 10.82991403 8.10775694 10.25 12.25 C7.23769943 15.81719805 5.12789961 18.04134449 0.4375 18.5625 C-3.4807645 18.17835642 -4.96293267 16.95743683 -7.75 14.25 C-9.19430855 11.36138291 -9.12688506 9.45352299 -8.75 6.25 C-6.3125 3.4375 -6.3125 3.4375 -3.75 1.25 C-2.75 0.25 -2.75 0.25 0 0 Z " fill="#8FB9F0" transform="translate(321.75,27.75)"/>
<path d="M0 0 C3.125 2.25 3.125 2.25 5 5 C5 6.32 5 7.64 5 9 C-1.93 9 -8.86 9 -16 9 C-12.62711409 0.56778522 -8.99867557 -1.70088052 0 0 Z " fill="#FEFBF7" transform="translate(462,155)"/>
<path d="M0 0 C3.125 2.25 3.125 2.25 5 5 C5 6.32 5 7.64 5 9 C-1.93 9 -8.86 9 -16 9 C-12.62711409 0.56778522 -8.99867557 -1.70088052 0 0 Z " fill="#FEFBF7" transform="translate(313,155)"/>
<path d="M0 0 C0.33 0.66 0.66 1.32 1 2 C6.94 1.505 6.94 1.505 13 1 C10 3 10 3 4 4 C4 8.29 4 12.58 4 17 C4.97582031 16.71125 5.95164063 16.4225 6.95703125 16.125 C8.24212615 15.74978981 9.52728581 15.37480138 10.8125 15 C12.70935547 14.443125 12.70935547 14.443125 14.64453125 13.875 C18 13 18 13 21 13 C21 10.03 21 7.06 21 4 C21.33 4 21.66 4 22 4 C22 18.19 22 32.38 22 47 C21.67 47 21.34 47 21 47 C21 36.11 21 25.22 21 14 C18.03 14.99 15.06 15.98 12 17 C8.93359375 17.51171875 8.93359375 17.51171875 6.4375 17.6875 C5.59058594 17.75324219 4.74367187 17.81898437 3.87109375 17.88671875 C3.25363281 17.92410156 2.63617188 17.96148437 2 18 C1.67 17.34 1.34 16.68 1 16 C0.01 15.67 -0.98 15.34 -2 15 C-1.03644647 4.44191344 -1.03644647 4.44191344 0 0 Z " fill="#C0BCB1" transform="translate(133,53)"/>
<path d="M0 0 C0.99 0.33 1.98 0.66 3 1 C3 4.96 3 8.92 3 13 C1.35 12.67 -0.3 12.34 -2 12 C-1.85904936 10.3745692 -1.71207913 8.74965949 -1.5625 7.125 C-1.48128906 6.22007813 -1.40007812 5.31515625 -1.31640625 4.3828125 C-1 2 -1 2 0 0 Z " fill="#F2C178" transform="translate(133,56)"/>
<path d="M0 0 C0.66 0 1.32 0 2 0 C2.33 1.98 2.66 3.96 3 6 C2.01 5.67 1.02 5.34 0 5 C0 6.98 0 8.96 0 11 C-0.33 11 -0.66 11 -1 11 C-1.02688151 9.35425434 -1.04634123 7.70838587 -1.0625 6.0625 C-1.07410156 5.14597656 -1.08570312 4.22945313 -1.09765625 3.28515625 C-1 1 -1 1 0 0 Z " fill="#D9BF94" transform="translate(124,61)"/>
<path d="M0 0 C3.63 0 7.26 0 11 0 C10 2 10 2 8.22265625 2.66796875 C7.50980469 2.83941406 6.79695312 3.01085938 6.0625 3.1875 C5.35222656 3.36667969 4.64195312 3.54585937 3.91015625 3.73046875 C2 4 2 4 0 3 C0 2.01 0 1.02 0 0 Z " fill="#CDBDA3" transform="translate(167,59)"/>
</svg>
